<?xml version="1.0" standalone="no"?><!DOCTYPE svg PUBLIC "-//W3C//DTD SVG 1.1//EN" "http://www.w3.org/Graphics/SVG/1.1/DTD/svg11.dtd"><svg t="1604992012335" class="icon" viewBox="0 0 1024 1024" version="1.1" xmlns="http://www.w3.org/2000/svg" p-id="830" xmlns:xlink="http://www.w3.org/1999/xlink" width="200" height="200"><defs><style type="text/css"></style></defs><path d="M815.36 32a103.68 103.68 0 0 1 103.68 103.68v466.56a362.88 362.88 0 0 1-362.88 362.88H193.28A103.68 103.68 0 0 1 89.6 861.44V135.68A103.68 103.68 0 0 1 193.28 32h622.08z m0 77.76H193.28a25.92 25.92 0 0 0-25.92 25.92v725.76a25.9584 25.9584 0 0 0 25.92 25.92h362.88c157.44 0 285.12-127.6416 285.12-285.12V135.68a25.92 25.92 0 0 0-25.92-25.92z m-298.0608 334.08a38.8608 38.8608 0 0 1 0 77.76H335.8208a38.8608 38.8608 0 0 1 0-77.76h181.4784zM672.8192 262.4a38.8992 38.8992 0 1 1 0 77.76H335.8208a38.8608 38.8608 0 0 1 0-77.76h336.9984z m0 360a38.8992 38.8992 0 1 1 0 77.76H335.8208a38.8608 38.8608 0 0 1 0-77.76h336.9984z" fill="#2c2c2c" p-id="831"></path></svg>