<?xml version="1.0" standalone="no"?><!DOCTYPE svg PUBLIC "-//W3C//DTD SVG 1.1//EN" "http://www.w3.org/Graphics/SVG/1.1/DTD/svg11.dtd"><svg t="1605646537973" class="icon" viewBox="0 0 1024 1024" version="1.1" xmlns="http://www.w3.org/2000/svg" p-id="1290" xmlns:xlink="http://www.w3.org/1999/xlink" width="200" height="200"><defs><style type="text/css"></style></defs><path d="M866.461538 0 157.538462 0C114.097231 0 78.769231 35.328 78.769231 78.769231l0 866.461538c0 43.441231 35.328 78.769231 78.769231 78.769231l708.923077 0c43.441231 0 78.769231-35.328 78.769231-78.769231L945.230769 78.769231C945.230769 35.328 909.902769 0 866.461538 0zM866.382769 945.230769 157.538462 945.230769 157.538462 78.769231l708.923077 0L866.382769 945.230769zM315.076923 512 236.307692 512l0-78.769231 78.769231 0L315.076923 512zM393.846154 433.230769l393.846154 0 0 78.769231L393.846154 512 393.846154 433.230769zM630.153846 590.769231l0 78.769231-236.307692 0 0-78.769231L630.153846 590.769231zM393.846154 748.307692l315.076923 0 0 78.769231-315.076923 0L393.846154 748.307692zM315.076923 669.538462 236.307692 669.538462l0-78.769231 78.769231 0L315.076923 669.538462zM315.076923 827.076923 236.307692 827.076923l0-78.769231 78.769231 0L315.076923 827.076923zM236.307692 275.692308 236.307692 236.307692c0-21.700923 17.683692-39.384615 39.384615-39.384615l471.906462 0c21.700923 0 39.384615 17.683692 39.384615 39.384615l0 39.384615c0 21.700923-17.683692 39.384615-39.384615 39.384615L275.692308 315.076923C253.991385 315.076923 236.307692 297.393231 236.307692 275.692308z" p-id="1291"></path></svg>