<?xml version="1.0" standalone="no"?><!DOCTYPE svg PUBLIC "-//W3C//DTD SVG 1.1//EN" "http://www.w3.org/Graphics/SVG/1.1/DTD/svg11.dtd"><svg t="1605028982656" class="icon" viewBox="0 0 1024 1024" version="1.1" xmlns="http://www.w3.org/2000/svg" p-id="30726" xmlns:xlink="http://www.w3.org/1999/xlink" width="200" height="200"><defs><style type="text/css"></style></defs><path d="M708.55 283.71c17.3-19.72 33.62-33.55 41.65-37.84 6.15-3.29 11.72-5.69 16.67-7.84 15.25-6.63 32.52-14.16 43.2-35.17 15.36-30.29 6.66-73.24-20.24-99.9-32.91-32.65-79.07-27.43-97.42-23.64-18.25 3.77-29.27 10.59-37.31 15.57-6.71 4.15-7.54 4.49-11.11 4.55-8.75 0.86-17.73-5.19-32.03-14.7-13.45-8.93-21.45-16.87-29.18-24.55-11.24-11.16-23.99-23.82-46.4-28.79-37.85-8.32-76.42 13.51-76.81 13.71-28.37 16.34-35.52 38.33-39.8 51.47-0.36 1.09-0.66 2.18-0.99 3.21-1.74-0.58-4.01-1.46-5.98-2.21-10.51-4.01-26.4-10.08-51.42-12.46-28.56-2.7-67.69-6.38-98.42 21.35-29.73 26.82-45.03 80.75-19.44 115.26 15.77 21.25 39.37 24.19 54.98 26.13 4.11 0.51 11.16 1.39 14.42 2.58 0.78 6.77-0.4 21.05-3.28 35.96C172.07 352.45 87.1 478.25 87.1 617.81c0 207.86 190.65 376.95 424.99 376.95S937.1 825.67 937.1 617.81c0-140.03-89.3-269.54-228.55-334.1zM512.09 933.09c-200.34 0-363.33-141.43-363.33-315.28 0-119.03 76-226.69 198.36-280.95 5.75-2.56 10-6.7 13.36-11.38 0.99-1.21 1.91-2.4 2.72-3.76 0.16-0.3 0.45-0.52 0.59-0.82 2.03-3.36 3.22-7.12 3.86-11 6.73-27.47 13.86-72.83-4.67-96.62-16.84-21.64-40.93-24.63-56.87-26.62-4.8-0.59-12.05-1.5-12.95-1.51-2.44-4.44 0.04-22.91 11.11-32.89 10.63-9.57 31.33-7.61 51.32-5.74 16.63 1.59 26.07 5.19 35.19 8.67 12.86 4.91 28.86 11.03 50.46 3.14 26.41-9.63 33.41-31.13 37.17-42.68 2.99-9.16 4.11-12.6 11.93-17.11 5.35-3.05 23.02-9 32.71-6.94 4.53 1 6.96 3.08 16.27 12.34 8.44 8.38 20.01 19.87 38.53 32.17 17.99 11.95 38.64 25.27 67.2 24.99 20.83-0.37 33.34-8.12 42.49-13.77 5.89-3.65 9.79-6.06 17.34-7.63 6.67-1.36 29.43-4.93 41.51 7.04 8.86 8.79 11.32 22.96 8.56 28.42-1.35 1.38-7.92 4.24-12.72 6.32-6.29 2.74-13.35 5.83-21.16 10.02-24.22 12.96-58.99 47.55-84.56 84.1-5.29 7.56-6.59 16.63-4.58 24.93 2.06 11.13 10.1 21.03 21.41 24.75 3.76 2.35 8.2 4.98 17.26 8.8C795 386.59 875.38 497.96 875.38 617.81c0.05 173.85-162.94 315.28-363.29 315.28z" p-id="30727"></path><path d="M664.32 650.2H542.93v-63.73H661.1c17.03 0 30.84-13.81 30.84-30.84s-13.81-30.83-30.84-30.83h-96.83l71.75-72.09c12.05-12.1 12.05-31.73 0.01-43.83-12.04-12.1-31.56-12.1-43.6 0l-80.37 80.75-80.37-80.75c-12.04-12.1-31.56-12.1-43.6 0-12.04 12.1-12.03 31.73 0.01 43.83l71.75 72.09h-96.77c-17.03 0-30.83 13.8-30.83 30.83 0 17.03 13.81 30.83 30.83 30.83h118.17v63.73H359.87c-17.03 0-30.83 13.81-30.83 30.83 0 17.03 13.81 30.84 30.83 30.84h121.39v122.98c0 17.03 13.81 30.83 30.84 30.83s30.83-13.81 30.83-30.83V711.87h121.39c17.03 0 30.84-13.81 30.84-30.84-0.01-17.02-13.81-30.83-30.84-30.83z" p-id="30728"></path></svg>