<?xml version="1.0" standalone="no"?><!DOCTYPE svg PUBLIC "-//W3C//DTD SVG 1.1//EN" "http://www.w3.org/Graphics/SVG/1.1/DTD/svg11.dtd"><svg t="1604991595475" class="icon" viewBox="0 0 1024 1024" version="1.1" xmlns="http://www.w3.org/2000/svg" p-id="21399" xmlns:xlink="http://www.w3.org/1999/xlink" width="200" height="200"><defs><style type="text/css"></style></defs><path d="M744.137939 799.895047h-112.845542c-19.084737 0-34.485557 16.42413-34.485557 36.762422s15.40082 36.762422 34.485557 36.762422h112.845542c19.084737 0 34.485557-16.42413 34.485557-36.762422s-15.40082-36.788005-34.485557-36.788005z m-260.432468 0H92.673026c-19.084737 0-34.485557 16.42413-34.485556 36.762422s15.40082 36.762422 34.485556 36.762422h391.08361c19.084737 0 34.485557-16.42413 34.485557-36.762422s-15.40082-36.788005-34.485557-36.788005zM886.94089 73.344742L962.256527 148.711544 895.639027 215.329044 820.272225 140.013407z" fill="#2c2c2c" p-id="21400"></path><path d="M778.265337 1022.465035H148.622516A112.052477 112.052477 0 0 1 36.672371 910.566054V124.817249A112.052477 112.052477 0 0 1 148.622516 12.892686h481.748902c19.084737 0 34.485557 15.40082 34.485556 34.485557 0 19.059154-15.40082 34.459974-34.485556 34.459974H148.622516c-23.689633 0-42.979032 19.314982-42.979032 42.979032v785.723223c0 23.689633 19.289399 42.979032 42.979032 42.979032h629.642821c23.689633 0 42.979032-19.289399 42.979032-42.979032V456.600028c0-19.059154 15.40082-34.459974 34.485557-34.459974 19.084737 0 34.485557 15.40082 34.485557 34.459974V910.668386a112.052477 112.052477 0 0 1-111.950146 111.796649z" fill="#2c2c2c" p-id="21401"></path><path d="M966.759092 64.262863L921.707857 19.211627c-27.578212-27.578212-74.829565-25.173433-105.40096 5.397962L405.703644 435.340756l-83.323041 228.24936 228.223778-83.220709L961.335548 169.63824a82.632306 82.632306 0 0 0 24.252454-50.551528 67.947803 67.947803 0 0 0-18.82891-54.823849zM512.690734 520.736l-74.803982 27.245636 27.220054-74.829564 304.204566-304.178984 46.995525 47.916504-303.616163 303.846408zM912.625978 120.92867l-47.481597 47.456015-46.995525-47.916505 46.995525-47.021107c3.581586-3.556003 7.137589-4.476983 8.749303-4.476983l43.209277 43.23486a15.272906 15.272906 0 0 1-4.476983 8.698137z" fill="#2c2c2c" p-id="21402"></path></svg>