<?xml version="1.0" standalone="no"?><!DOCTYPE svg PUBLIC "-//W3C//DTD SVG 1.1//EN" "http://www.w3.org/Graphics/SVG/1.1/DTD/svg11.dtd"><svg t="1606144735056" class="icon" viewBox="0 0 1024 1024" version="1.1" xmlns="http://www.w3.org/2000/svg" p-id="9784" xmlns:xlink="http://www.w3.org/1999/xlink" width="200" height="200"><defs><style type="text/css"></style></defs><path d="M588.2 102.7h-312c-73.1 0-132.7 52.6-132.7 117.4v587.1c0 64.7 59.5 117.4 132.7 117.4h470.9c73.1 0 132.7-52.6 132.7-117.4v-392c0-14.2-11.5-25.6-25.6-25.6s-25.6 11.5-25.6 25.6v392c0 35.8-37.3 66.1-81.4 66.1h-471c-44.1 0-81.4-30.3-81.4-66.1V220c0-35.8 37.3-66.1 81.4-66.1h311.9c14.2 0 25.6-11.5 25.6-25.6 0.1-14.2-11.4-25.6-25.5-25.6z" p-id="9785"></path><path d="M319 708.1c-14.2 0-25.6 11.5-25.6 25.6s11.5 25.6 25.6 25.6h385.3c14.2 0 25.6-11.5 25.6-25.6s-11.5-25.6-25.6-25.6H319zM874.7 195.4c1.7-23.4-7.7-46.7-25.2-62.3l-0.4-0.4c-17.2-14.6-39.8-21-61.8-17.6-24.2 3.5-46.3 15.6-62 33.8L425 489.5c-2.9 3.3-4.9 7.2-5.8 11.5l-25.1 114.3c-2 9.1 1.1 18.5 8.1 24.7 4.8 4.2 10.8 6.4 17 6.4 2.9 0 5.7-0.5 8.5-1.5l109.8-38.7c4.1-1.5 7.8-3.9 10.7-7.2l300.2-340.4c15.8-17.6 25.2-40 26.3-63.2z m-51.1-3.9c0 0.3-0.1 0.9-0.1 1.2-0.6 11.5-5.2 22.6-13.4 31.6L514.1 560 454 581.2l13.8-62.8 296-335.8c7.8-9.1 18.7-15 31-16.8 7.4-1.2 14.9 0.9 20.7 5.7 5.6 5.2 8.6 12.7 8.1 20z" p-id="9786"></path></svg>