<?xml version="1.0" standalone="no"?><!DOCTYPE svg PUBLIC "-//W3C//DTD SVG 1.1//EN" "http://www.w3.org/Graphics/SVG/1.1/DTD/svg11.dtd"><svg t="1605028607287" class="icon" viewBox="0 0 1024 1024" version="1.1" xmlns="http://www.w3.org/2000/svg" p-id="5713" xmlns:xlink="http://www.w3.org/1999/xlink" width="200" height="200"><defs><style type="text/css"></style></defs><path d="M583.4752 51.2v65.8432a394.752 394.752 0 0 1 323.072 323.5328h-323.2256V51.2h0.1536z m-0.1536 0c-36.352 0-65.792 29.4912-65.792 65.8432v323.5328c0 36.352 29.44 65.8432 65.792 65.8432h323.2256a65.7408 65.7408 0 0 0 64.768-76.6976 460.5952 460.5952 0 0 0-377.1392-377.5488A65.6896 65.6896 0 0 0 583.3216 51.2z" p-id="5714"></path><path d="M396.8512 222.208v306.2272c0 54.5792 44.1856 98.7648 98.6624 98.7648h305.9712a346.3168 346.3168 0 0 1-338.8416 279.7568 345.4976 345.4976 0 0 1-345.1392-341.3504A345.4976 345.4976 0 0 1 396.8 222.208z m1.024-65.8432a77.824 77.824 0 0 0-12.1856 1.1264A411.3408 411.3408 0 0 0 51.2 566.1696a411.2896 411.2896 0 0 0 343.1936 401.408 413.7472 413.7472 0 0 0 472.064-329.1648 65.8944 65.8944 0 0 0-65.792-77.056h-305.152a32.9216 32.9216 0 0 1-32.8704-32.9216V222.208c0-35.9936-28.8768-65.3312-64.768-65.8432z" p-id="5715"></path></svg>