<?xml version="1.0" standalone="no"?><!DOCTYPE svg PUBLIC "-//W3C//DTD SVG 1.1//EN" "http://www.w3.org/Graphics/SVG/1.1/DTD/svg11.dtd"><svg t="1605701784325" class="icon" viewBox="0 0 1024 1024" version="1.1" xmlns="http://www.w3.org/2000/svg" p-id="2823" xmlns:xlink="http://www.w3.org/1999/xlink" width="200" height="200"><defs><style type="text/css"></style></defs><path d="M751.4 118.75625c-13.21875 0-23.9625 10.74375-23.9625 23.9625l0 130.10625c0 0.05625-0.05625 0.1125-0.05625 0.1125 0 0.1125 0.05625 0.16875 0.05625 0.16875l0 1.0125 0.05625 0c0 12.99375 10.35 22.725 22.66875 22.725l1.06875 0.05625c0.05625 0 0.1125 0 0.16875 0s0.05625 0 0.1125 0l130.10625 0c13.275 0 24.01875-10.74375 24.01875-23.9625 0-13.275-10.6875-23.9625-24.01875-23.9625l-72.3375 0 51.1875-51.1875c9.3375-9.39375 9.3375-24.58125 0-33.91875-4.725-4.66875-10.85625-7.03125-16.9875-7.03125-6.13125 0-12.2625 2.3625-16.93125 7.03125l-51.1875 51.1875L775.3625 142.71875C775.3625 129.5 764.5625 118.75625 751.4 118.75625L751.4 118.75625z" p-id="2824"></path><path d="M707.91875 316.3625C661.175 269.5625 599.8625 246.1625 538.49375 246.1625c-61.3125 0-122.68125 23.45625-169.48125 70.25625C352.475 332.95625 338.91875 351.35 328.175 370.925L327.725 371.76875c-3.9375 7.2-7.425 14.56875-10.575 22.05l-186.3 390.31875c-18.1125 30.65625-14.0625 70.81875 12.20625 97.14375 15.58125 15.58125 35.71875 24.4125 56.19375 24.4125 10.35 0 20.75625-2.19375 30.7125-6.975 29.5875-14.23125 406.96875-194.34375 406.96875-194.34375 2.86875-1.2375 11.08125-5.34375 11.08125-5.34375 21.6-11.025 41.85-25.65 59.85-43.65C801.51875 561.725 801.51875 409.9625 707.91875 316.3625zM674.39375 621.74375c-14.0625 14.0625-30.0375 25.7625-47.64375 34.875-3.825 1.85625-8.04375 3.88125-9.1125 4.3875l-0.5625 0.225-0.50625 0.28125-154.74375 73.85625-92.025-92.1375L369.74375 643.23125c-9.3375-9.3375-24.525-9.3375-33.91875 0-9.39375 9.39375-9.39375 24.525 0 33.91875 0 0 0 0 0 0.05625l80.1 80.1-206.38125 98.55c-3.375 1.575-6.75 2.3625-10.29375 2.3625-7.70625 0-15.975-3.825-22.66875-10.575-10.40625-10.4625-12.4875-26.60625-4.95-39.375l1.125-1.8 0.9-1.85625 186.35625-390.375 0.50625-1.125 0.50625-1.125c2.41875-5.85 5.23125-11.7 8.26875-17.4375L369.6875 393.93125l0.1125-0.1125 0.05625-0.1125c1.6875-3.15 3.6-6.1875 5.45625-9.28125l157.725 156.9375c0.05625 0 0.05625 0 0.05625 0.05625 9.39375 9.3375 24.58125 9.3375 33.8625 0 9.3375-9.39375 9.3375-24.58125 0-33.91875L566.9 507.44375l0 0L405.6875 346.9625c35.8875-34.425 82.9125-53.38125 132.75-53.38125 51.35625 0 99.61875 19.96875 135.95625 56.30625 36.3375 36.3375 56.30625 84.54375 56.30625 135.9C730.75625 537.14375 710.73125 585.51875 674.39375 621.74375z" p-id="2825"></path></svg>