<?xml version="1.0" standalone="no"?><!DOCTYPE svg PUBLIC "-//W3C//DTD SVG 1.1//EN" "http://www.w3.org/Graphics/SVG/1.1/DTD/svg11.dtd"><svg t="1605701825251" class="icon" viewBox="0 0 1024 1024" version="1.1" xmlns="http://www.w3.org/2000/svg" p-id="4094" xmlns:xlink="http://www.w3.org/1999/xlink" width="200" height="200"><defs><style type="text/css"></style></defs><path d="M686.99990234 861.99980469H337.00097656v25.00048828a24.99960938 24.99960938 0 0 1-50.00009765 0v-27.50097656A125.05078125 125.05078125 0 0 1 186.99980469 737V262.00039063A124.99980469 124.99980469 0 0 1 311.99960937 136.99970703h400.00078125a124.99980469 124.99980469 0 0 1 124.99980469 125.00068359V737A125.05078125 125.05078125 0 0 1 737 859.50019531v27.50009766a24.99960938 24.99960938 0 0 1-50.00009766 0v-25.00048828z m100.00019532-399.99902344V261.99951172a74.99970703 74.99970703 0 0 0-74.99970704-75.00058594H311.99960937a74.99970703 74.99970703 0 0 0-74.99970703 75.00058594V461.99902344H787.00097656z m0 49.99921875H236.99902344v225a74.99970703 74.99970703 0 0 0 74.99970703 74.99970703h400.00078125A74.99970703 74.99970703 0 0 0 787.00009766 737V512zM136.99970703 361.99970703a24.99960938 24.99960938 0 0 1 25.00048828 25.00048828v100.00019531a24.99960938 24.99960938 0 0 1-50.00097656 1e-8V387.00019531a24.99960938 24.99960938 0 0 1 25.00048828-25.00048828z m750.00058594 0a24.99960938 24.99960938 0 0 1 24.99960937 25.00048828v100.00019531a24.99960938 24.99960938 0 0 1-50.00009765 1e-8V387.00019531a24.99960938 24.99960938 0 0 1 25.00048828-25.00048828zM311.99960937 662.00029297a50.00009766 50.00009766 0 1 1 0-100.00019531 50.00009766 50.00009766 0 0 1 0 100.00019531z m400.00078125 0a50.00009766 50.00009766 0 1 1 1e-8-100.00019531 50.00009766 50.00009766 0 0 1 0 100.00019531z" p-id="4095"></path></svg>