<?xml version="1.0" standalone="no"?><!DOCTYPE svg PUBLIC "-//W3C//DTD SVG 1.1//EN" "http://www.w3.org/Graphics/SVG/1.1/DTD/svg11.dtd"><svg t="1605754385643" class="icon" viewBox="0 0 1024 1024" version="1.1" xmlns="http://www.w3.org/2000/svg" p-id="2789" xmlns:xlink="http://www.w3.org/1999/xlink" width="200" height="200"><defs><style type="text/css"></style></defs><path d="M546.95345117 201.95680888l0-14.34797226c0-21.59166094-17.66582227-39.2574832-39.25658408-39.2574832l-4.89897862 0c-21.60784951 0-39.25658408 17.66672227-39.25658407 39.2574832l0 15.91111231c-163.66743369 23.31129463-289.91753614 164.30959776-289.91753614 334.29974502 0 186.23043545 151.50767783 337.73811328 337.75610098 337.73811327 24.90861182 0 49.7848456-2.72605166 73.8947997-8.1124998 12.0383376-2.69187451 19.6282916-14.6087956 16.9364171-26.64623408-2.69187451-12.05542617-14.67804815-19.59411533-26.66332266-16.93641709-20.93240742 4.65524385-42.52316924 7.03503018-64.16789414 7.03503018-161.61682412 0-293.11306963-131.47915693-293.11306963-293.07799336s131.4962455-293.09598105 293.11306963-293.09598106c161.59973555 0 293.07889248 131.49714463 293.07889248 293.09598106 0 21.55748379-2.36269776 43.06190362-6.98466445 63.90617167-2.67388682 12.0383376 4.89897862 23.95525869 16.9553039 26.62914552 12.0203499 2.72695078 23.95435869-4.8980795 26.64623409-16.93551797 5.33338417-24.00652354 8.04234727-48.7766294 8.04234726-73.59979922C849.11798427 363.60870927 716.52718057 219.79711338 546.95345117 201.95680888z" p-id="2790"></path><path d="M511.98695878 345.78639248c-12.33243896 0-22.32016699 10.0048166-22.32016698 22.320167l0 168.35595468c0 12.33423721 9.98772802 22.33905381 22.32016699 22.33905381l157.55247949 0c12.35042666 0 22.32106612-10.0048166 22.32106612-22.33905381 0-12.33243896-9.97064033-22.32016699-22.32106612-22.32016699L534.3260126 514.14234717 534.3260126 368.10745948C534.3260126 355.79120997 524.33828457 345.78639248 511.98695878 345.78639248z" p-id="2791"></path><path d="M722.29407031 634.15697714c-64.98364131 0-117.66991992 52.66829092-117.66991992 117.65103224 0 64.96655273 52.68627862 117.63394453 117.66991992 117.63394453 64.96655273 0 117.63394453-52.6673918 117.63394453-117.63394453C839.92801484 686.82526807 787.26152305 634.15697714 722.29407031 634.15697714zM761.62170605 766.83412286c6.96577763 0 12.61035 5.64547237 12.61035 12.59416142 0 6.96577763-5.64457325 12.59416143-12.61035 12.59416142l-26.16056279 0 0 24.07577696c0 6.96577763-5.66346006 12.61125-12.61125 12.61125-6.96487763 0-12.61035-5.64547237-12.61035-12.61125l0-24.07577696-28.41803261 0c-6.96577763 0-12.61125-5.62838378-12.61125-12.59416142 0-6.94868906 5.64547237-12.59416143 12.61125-12.59416143L710.23864414 766.83412286l0-13.73908448-27.30638584 0c-6.94958818 0-12.59326143-5.64547237-12.59326142-12.59416143 0-6.96487763 5.64367325-12.61035 12.59326142-12.61035L700.61516914 727.89052607l-19.29821572-19.31710341c-4.91696631-4.91606719-4.91696631-12.88916104 0-17.80522823 4.91606719-4.93225576 12.90714873-4.93225576 17.80522822 0l23.86711846 23.85092901 23.86711846-23.85092901c4.93225576-4.93225576 12.90714873-4.93225576 17.8223168 0 4.93315488 4.91606719 4.93315488 12.88916104 0 17.80522823l-19.31620343 19.31710341 17.38791124 0c6.96487763 0 12.59416143 5.64547237 12.59416142 12.61035 0 6.94868906-5.62928291 12.59416143-12.59416142 12.59416143l-27.29019727 0 0 13.73908448L761.62170605 766.83412286z" p-id="2792"></path></svg>