<?xml version="1.0" standalone="no"?><!DOCTYPE svg PUBLIC "-//W3C//DTD SVG 1.1//EN" "http://www.w3.org/Graphics/SVG/1.1/DTD/svg11.dtd"><svg t="1605701792050" class="icon" viewBox="0 0 1024 1024" version="1.1" xmlns="http://www.w3.org/2000/svg" p-id="3110" xmlns:xlink="http://www.w3.org/1999/xlink" width="200" height="200"><defs><style type="text/css"></style></defs><path d="M630.125 404V240.3125L596.375 208.25l-87.75-84.375-33.75-33.75H461.375c-37.125 0-67.5 30.375-67.5 67.5v246.375c-20.25 11.8125-33.75 33.75-33.75 57.375v405c0 37.125 30.375 67.5 67.5 67.5h168.75c37.125 0 67.5-30.375 67.5-67.5V461.375c0-25.3125-13.5-45.5625-33.75-57.375zM427.625 157.625c0-18.5625 15.1875-33.75 33.75-33.75l135 133.3125V393.875H427.625V157.625z m202.5 708.75c0 18.5625-15.1875 33.75-33.75 33.75H427.625c-18.5625 0-33.75-15.1875-33.75-33.75V528.875h236.25v337.5z m0-354.375H393.875v-50.625c0-18.5625 15.1875-33.75 33.75-33.75h168.75c18.5625 0 33.75 15.1875 33.75 33.75v50.625z" p-id="3111"></path></svg>