<?xml version="1.0" standalone="no"?><!DOCTYPE svg PUBLIC "-//W3C//DTD SVG 1.1//EN" "http://www.w3.org/Graphics/SVG/1.1/DTD/svg11.dtd"><svg t="1605701779885" class="icon" viewBox="0 0 1024 1024" version="1.1" xmlns="http://www.w3.org/2000/svg" p-id="2683" xmlns:xlink="http://www.w3.org/1999/xlink" width="200" height="200"><defs><style type="text/css"></style></defs><path d="M808.63085938 363.68457031c27.27767945 0 49.43847656 22.16079712 49.43847656 49.43847657l0 395.50781249c0 27.27767945-22.16079712 49.43847656-49.43847657 49.43847657L215.36914062 858.06933594c-27.25450516 0-49.43847656-22.16079712-49.43847656-49.43847656L165.93066406 413.12304687c0-27.27767945 22.1839714-49.43847656 49.43847656-49.43847656L808.63085938 363.68457031M808.63085938 314.24609375L215.36914062 314.24609375c-54.60479737 0-98.87695313 44.27215576-98.87695312 98.87695313l0 395.50781249c0 54.60479737 44.27215576 98.87695313 98.87695313 98.87695313l593.26171875 0c54.60479737 0 98.87695313-44.27215576 98.87695312-98.87695313L907.5078125 413.12304687C907.5078125 358.51824951 863.23565674 314.24609375 808.63085938 314.24609375L808.63085938 314.24609375zM363.68457031 264.80761719L363.68457031 215.36914062c0-27.22978592 22.1839714-49.43847656 49.43847657-49.43847656l197.75390624 0c27.27767945 0 49.43847656 22.20869064 49.43847657 49.43847657l0 49.43847656 49.43847656 0L709.75390625 215.36914062c0-54.60479737-44.27215576-98.87695313-98.87695313-98.87695312L413.12304687 116.4921875c-54.60479737 0-98.87695313 44.27215576-98.87695312 98.87695313l0 49.43847656L363.68457031 264.80761719zM660.31542969 561.43847656l-98.87695313 0 0-98.87695312-98.87695312 0 0 98.87695312-98.87695313 0 0 98.87695313 98.87695313 0 0 98.87695312 98.87695312 0 0-98.87695312 98.87695313 0L660.31542969 561.43847656z" p-id="2684"></path></svg>