<?xml version="1.0" standalone="no"?><!DOCTYPE svg PUBLIC "-//W3C//DTD SVG 1.1//EN" "http://www.w3.org/Graphics/SVG/1.1/DTD/svg11.dtd"><svg t="1605701774339" class="icon" viewBox="0 0 1024 1024" version="1.1" xmlns="http://www.w3.org/2000/svg" p-id="2543" xmlns:xlink="http://www.w3.org/1999/xlink" width="200" height="200"><defs><style type="text/css"></style></defs><path d="M770.30495 174.5c3.15 0 6.75 0.9 9.45 3.6 8.1 8.1 6.75 22.5 0 28.8-6.75 4.5-152.1 152.1-152.1 152.1s-12.6 16.2 0 28.8c4.5 4.5 9 5.85 13.5 5.85 9 0 15.75-5.85 15.75-5.85L820.70495 237.5s4.5-3.6 10.35-3.6c3.6 0 7.65 1.35 11.7 5.4 11.25 11.25 1.35 22.5 1.35 22.5l-149.85 165.6s-13.95 13.95 0 28.8c4.5 4.5 9.45 6.75 13.95 6.75 9 0 14.85-6.75 14.85-6.75l152.1-152.1s7.65-5.85 15.75-5.85c4.5 0 9 1.35 13.5 5.85 9.45 9.45 1.35 19.35 3.15 20.7 0 0-135.9 165.6-150.75 176.85-11.7 9-54 39.15-115.65 39.15-16.2 0-34.2-2.25-52.65-7.65-3.15 3.15-18 18.45-38.7 41.4l211.05 204.3c16.2 16.2 16.2 41.4 0 58.05-5.85 5.85-13.5 9-21.6 9-13.5 0-27.45-6.75-37.8-17.1 0 0-107.55-112.95-196.65-205.2-84.6 90.45-201.15 216-201.15 216-6.75 5.85-15.75 9-25.2 9-10.35 0-20.7-3.6-29.7-12.6-16.2-16.2-18-40.05-3.15-54.9l216-203.4c-19.35-20.25-36.45-37.35-49.05-50.4-10.35 3.6-28.8 9.45-53.55 9.45-53.55 0-132.3-30.6-200.7-186.3 0 0-43.2-83.25-43.65-144.9 0-24.3 6.75-31.95 13.95-31.95 11.7 0 28.35 17.1 28.35 17.1l46.8 45.45 7.65 7.65 296.55 288 43.65-40.95s-31.95-99.45 31.95-165.6c63.9-63.9 173.7-149.4 173.7-149.4s6.3-1.35 13.05-1.35m0-51.3c-18 0-32.85 6.75-37.8 10.35l-6.75 4.5c-4.5 3.6-112.05 87.75-178.2 153.9l-0.9 0.9C498.50495 341.45 490.40495 403.1 492.65495 447.65L247.40495 210.05H246.50495l-7.65-7.65-45.9-44.55c-11.7-12.6-35.55-32.85-64.8-32.85-17.1 0-32.85 6.75-44.55 18.45-22.5 22.5-21.6 54.9-21.6 65.25 0.9 69.75 42.3 153 49.05 166.95 43.65 99 121.95 214.65 246.6 214.65 5.4 0 11.25 0 15.75-0.9l-164.7 155.25-0.9 0.9c-17.1 17.1-26.1 41.4-24.3 66.15 1.35 22.95 11.25 44.55 28.35 60.75 18 18 40.95 27.45 66.15 27.45 22.5 0 43.2-8.1 59.4-22.5 1.35-0.9 2.25-2.25 3.6-3.6 0.9-0.9 86.85-93.6 164.25-176.85 77.85 81 158.4 164.7 158.85 165.6l0.9 0.9c20.25 20.25 47.7 31.95 74.25 31.95 22.5 0 43.2-8.1 58.05-23.85 18-18 27.45-40.95 27.45-65.25s-9.45-47.7-27.45-65.25l-0.9-0.9-153.9-148.5c50.4 0 99.45-16.2 144-49.05l0.9-0.9c5.85-3.6 20.7-14.85 161.1-185.85 6.75-8.1 10.35-17.1 11.25-26.55 7.65-31.95-8.1-53.55-18-63-11.7-11.7-26.55-18.45-42.3-20.25-0.9-14.85-7.65-30.6-20.25-43.65-11.7-11.7-26.55-18.45-42.3-20.25-2.25-14.85-9-29.7-20.25-40.95-12.15-11.25-28.8-18-46.35-18z" p-id="2544"></path></svg>