<?xml version="1.0" standalone="no"?><!DOCTYPE svg PUBLIC "-//W3C//DTD SVG 1.1//EN" "http://www.w3.org/Graphics/SVG/1.1/DTD/svg11.dtd"><svg t="1605754389774" class="icon" viewBox="0 0 1024 1024" version="1.1" xmlns="http://www.w3.org/2000/svg" p-id="2931" xmlns:xlink="http://www.w3.org/1999/xlink" width="200" height="200"><defs><style type="text/css"></style></defs><path d="M756.25285134 393.70731653c-10.9083797 0-19.7615579-8.85317743-19.7615579-19.76155789s8.85317743-19.7615579 19.7615579-19.7615579c3.55708062 0 7.03511453-1.18569381 9.88077856-3.39898795l33.67369427-26.08525584c3.87326517-3.00375669 6.244652-7.82557706 6.24465201-12.72644338L806.05197618 220.91225756c0-8.85317743-7.27225313-16.12543133-16.12543133-16.12543134L234.07345515 204.78682622c-8.85317743 0-16.12543133 7.27225313-16.12543133 16.12543134l0 91.0612568c0 4.97991225 2.37138683 9.72268668 6.24465201 12.72644336l33.67369427 26.08525584c2.84566403 2.21329416 6.32369871 3.39898796 9.88077856 3.39898796 10.9083797 0 19.7615579 8.85317743 19.7615579 19.76155789s-8.85317743 19.7615579-19.7615579 19.76155789c-12.25216539 0-24.34623888-4.11040377-34.06892554-11.69884223l-33.67369428-26.08525582c-13.51690513-10.43410249-21.57962079-26.87571836-21.5796208-43.94970412L178.4249088 220.91225756c0-30.66993759 24.97860876-55.64854635 55.64854635-55.64854635l555.77404376 0c30.66993759 0 55.64854635 24.97860876 55.64854634 55.64854635l0 91.0612568c0 17.07398574-8.06271566 33.51560163-21.5796208 43.94970411l-33.67369428 26.08525583C780.67813616 389.59691276 768.50501672 393.70731653 756.25285134 393.70731653z" p-id="2932"></path><path d="M623.21804597 328.88940822L623.21804597 328.88940822c-10.9083797 0-19.7615579-8.85317743-19.7615579-19.76155789l0-102.76009904c0-10.9083797 8.85317743-19.7615579 19.7615579-19.7615579l0 0c10.9083797 0 19.7615579 8.85317743 19.7615579 19.7615579l0 102.76009904C642.97960309 320.03623002 634.12642567 328.88940822 623.21804597 328.88940822z" p-id="2933"></path><path d="M401.09813935 328.88940822L401.09813935 328.88940822c-10.9083797 0-19.7615579-8.85317743-19.76155789-19.76155789l0-102.76009904c0-10.9083797 8.85317743-19.7615579 19.7615579-19.7615579l0 0c10.9083797 0 19.7615579 8.85317743 19.76155788 19.7615579l1e-8 102.76009904C420.85969648 320.03623002 412.00651904 328.88940822 401.09813935 328.88940822z" p-id="2934"></path><path d="M512 382.64084416c29.32615114 0 57.86184051 5.77037479 84.57946621 17.07398576 25.84811723 10.9083797 49.16675497 26.63857975 69.08640552 46.63727549s35.64984984 43.23828753 46.63727549 69.08640553c11.30361097 26.79667165 17.07398574 55.25331507 17.07398575 84.57946621s-5.77037479 57.86184051-17.07398575 84.57946621c-10.9083797 25.84811723-26.63857975 49.16675497-46.63727549 69.08640552s-43.23828753 35.64984984-69.08640552 46.63727549c-26.79667165 11.30361097-55.25331507 17.07398574-84.57946621 17.07398574s-57.86184051-5.77037479-84.57946621-17.07398574c-25.84811723-10.9083797-49.16675497-26.63857975-69.08640552-46.63727549s-35.64984984-43.23828753-46.63727549-69.08640552c-11.30361097-26.79667165-17.07398574-55.25331507-17.07398575-84.57946621s5.77037479-57.86184051 17.07398575-84.57946621c10.9083797-25.84811723 26.63857975-49.16675497 46.63727549-69.08640553s43.23828753-35.64984984 69.08640552-46.63727549C454.13815949 388.41121896 482.67384886 382.64084416 512 382.64084416M512 343.11772917c-141.88798279 0-256.90024798 115.01226519-256.90024798 256.90024798s115.01226519 256.90024798 256.90024798 256.90024798 256.90024798-115.01226519 256.90024798-256.90024798S653.88798279 343.11772917 512 343.11772917L512 343.11772917z" p-id="2935"></path><path d="M416.90738536 582.62780684L416.90738536 582.62780684c-10.9083797 0-19.7615579-8.85317743-19.76155789-19.76155789l-1e-8-39.52311502c0-10.9083797 8.85317743-19.7615579 19.7615579-19.76155789l0 0c10.9083797 0 19.7615579 8.85317743 19.7615579 19.76155789l0 39.52311502C436.66894247 573.77462865 427.81576506 582.62780684 416.90738536 582.62780684z" p-id="2936"></path><path d="M607.40879997 582.62780684L607.40879997 582.62780684c-10.9083797 0-19.7615579-8.85317743-19.7615579-19.76155789l0-39.52311502c0-10.9083797 8.85317743-19.7615579 19.7615579-19.76155789l0 0c10.9083797 0 19.7615579 8.85317743 19.76155789 19.76155789l0 39.52311502C627.17035708 573.77462865 618.31717966 582.62780684 607.40879997 582.62780684z" p-id="2937"></path><path d="M512 708.31131236c-39.76025362 0-75.48914941-23.63482306-90.98221086-60.23322733-4.26849644-10.03887122 0.39523127-21.65866673 10.51314842-25.92716317 10.03887122-4.26849644 21.65866673 0.39523127 25.92716318 10.51314844 9.3274554 21.97485205 30.74898353 36.20317377 54.62094521 36.20317376 23.87196167 0 45.29348979-14.22832171 54.6209452-36.20317376 4.26849644-10.03887122 15.88829196-14.70259892 25.92716318-10.51314844 10.03887122 4.26849644 14.70259892 15.88829196 10.51314842 25.92716317C587.48914941 684.67649008 551.76025362 708.31131236 512 708.31131236z" p-id="2938"></path></svg>