<?xml version="1.0" standalone="no"?><!DOCTYPE svg PUBLIC "-//W3C//DTD SVG 1.1//EN" "http://www.w3.org/Graphics/SVG/1.1/DTD/svg11.dtd"><svg t="1605701812971" class="icon" viewBox="0 0 1024 1024" version="1.1" xmlns="http://www.w3.org/2000/svg" p-id="3672" xmlns:xlink="http://www.w3.org/1999/xlink" width="200" height="200"><defs><style type="text/css"></style></defs><path d="M322.112 553.28a43.2 43.2 0 0 0 86.4 0v-0.048a43.2 43.2 0 1 0-86.4 0.048c0-0.048 0-0.048 0 0zM564.56 553.28a43.2 43.2 0 1 0 43.2-43.2c-23.856 0-43.2 19.296-43.2 43.2z" p-id="3673"></path><path d="M489.824 906.608c-139.584 0-264.528-85.152-316.176-213.6H152c-48.96 0-88.8-39.84-88.8-88.8s39.84-88.8 88.8-88.8h0.816c19.104-127.872 110.352-235.344 234.192-274.512 14.928-32.88 38.304-61.536 56.16-80.496 41.856-44.544 53.52-43.44 59.76-42.864 10.752 1.008 19.584 9.12 21.504 19.728l2.88 16.176c11.856 67.296 14.592 72.768 28.848 78 141.216 27.888 249.648 142.8 270.672 283.92h0.816c48.96 0 88.8 39.84 88.8 88.8s-39.84 88.8-88.8 88.8h-21.648c-51.696 128.496-176.592 213.648-316.176 213.648zM152 563.408c-22.512 0-40.8 18.288-40.8 40.8s18.288 40.8 40.8 40.8h38.304c10.224 0 19.344 6.48 22.704 16.176 40.656 118.08 151.92 197.424 276.816 197.424s236.16-79.344 276.816-197.424c3.36-9.696 12.432-16.176 22.704-16.176h38.304c22.512 0 40.8-18.288 40.8-40.8s-18.288-40.8-40.8-40.8h-22.176a24 24 0 0 1-23.904-22.032c-10.752-130.32-107.904-238.512-236.256-263.136-1.152-0.24-2.304-0.528-3.456-0.912-38.448-13.488-47.616-39.024-57.312-90.768-19.968 20.256-45.12 50.688-57.312 82.608a23.9664 23.9664 0 0 1-15.984 14.544c-117.408 32.688-203.04 136.224-213.072 257.616a24 24 0 0 1-23.904 22.032H152z" p-id="3674"></path></svg>