<?xml version="1.0" standalone="no"?><!DOCTYPE svg PUBLIC "-//W3C//DTD SVG 1.1//EN" "http://www.w3.org/Graphics/SVG/1.1/DTD/svg11.dtd"><svg t="1605754392964" class="icon" viewBox="0 0 1024 1024" version="1.1" xmlns="http://www.w3.org/2000/svg" p-id="3077" xmlns:xlink="http://www.w3.org/1999/xlink" width="200" height="200"><defs><style type="text/css"></style></defs><path d="M742.23745727 260.12579346v-31.71972656c0-10.46942138-8.47869873-18.96459961-18.94894409-18.96459961h-417.06298828c-10.47024536 0-18.94976807 8.49435425-18.94976806 18.96459961v31.58706664h-3.70129395c-48.48760987 0-87.93457031 39.44778443-87.93457031 87.9189148v380.22720337c0 48.48596191 39.44696045 87.93374633 87.93457031 87.93374634h456.0534668c48.47113037 0 87.93292237-39.44778443 87.93292236-87.93374634V347.91204834c0-47.58700562-38.04537964-86.38549805-85.3225708-87.78625488z m47.39666749 87.78625488v114.30175781h-47.39666749V298.17282104c26.33752441 1.40075684 47.39666748 23.06304932 47.39666749 49.7392273zM325.17446899 247.35583496H704.34039307v214.85879517H325.17446899V247.35501099z m-41.6000061 50.55166626h3.70129395v164.30712891h-50.55166627c-1.09176636 0-2.12420654 0.13348388-3.15582275 0.30899047V347.91204834c0-27.56195068 22.43023682-50.00537109 50.00619507-50.0053711zM739.62875367 778.16027832H283.57446289c-27.57678222 0-50.00619507-22.44506836-50.00619507-50.02020264V499.80270386c1.03244018 0.17715454 2.06488037 0.30899048 3.15582275 0.30899048h552.91085816v228.02755737c-0.00082398 27.57513427-22.43106079 50.02020263-50.00619506 50.02020264z" p-id="3078"></path><path d="M556.19470214 343.26730347c6.4871521 0 11.76800537-5.26519776 11.76800538-11.75317383 0-6.50363159-5.28085328-11.75317383-11.76800538-11.75317383h-24.81811523l23.56567383-23.56484985c4.58459472-4.60107422 4.58459472-12.0333252 0-16.61956788-4.58624268-4.60107422-12.03414917-4.60107422-16.61956787 0l-29.14068604 29.1258545-29.13986206-29.12503052c-4.58624268-4.6018982-12.03250122-4.6018982-16.60473633 0-4.60107422 4.5854187-4.60107422 12.01849365 0 16.6187439l23.55001831 23.56567383h-24.81811523c-6.48880005 0-11.75399781 5.24871826-11.7539978 11.75234985 0 6.48880005 5.26519776 11.75317383 11.75317383 11.75317383h35.25952148v23.49151611h-35.25952148c-6.48797607 0-11.75317383 5.26437378-11.75317383 11.76800537 0 6.48797607 5.26519776 11.75317383 11.75317383 11.75317383h35.25952148v31.3357544c0 6.50280761 5.26519776 11.75317383 11.75317383 11.75317382s11.75234985-5.25036622 11.75234985-11.75234986v-31.33657836h35.26116943c6.4871521 0 11.76800537-5.26519776 11.76800538-11.75317383 0-6.50280761-5.28085328-11.76882935-11.76800538-11.76882935h-35.25787352v-23.49069213h35.25787352z" p-id="3079"></path></svg>