<?xml version="1.0" standalone="no"?><!DOCTYPE svg PUBLIC "-//W3C//DTD SVG 1.1//EN" "http://www.w3.org/Graphics/SVG/1.1/DTD/svg11.dtd"><svg t="1605754396790" class="icon" viewBox="0 0 1024 1024" version="1.1" xmlns="http://www.w3.org/2000/svg" p-id="3218" xmlns:xlink="http://www.w3.org/1999/xlink" width="200" height="200"><defs><style type="text/css"></style></defs><path d="M505.3765625 840.809375c-181.5328125 0-329.23125-147.6984375-329.23125-329.23125 0-181.5328125 147.6984375-329.23125 329.23125-329.23125 181.5328125 0 329.23125 147.6984375 329.23125 329.23125 0 181.575-147.6984375 329.23125-329.23125 329.23125z m0-616.2328125c-158.2875 0-287.04375 128.75625-287.04375 287.04375 0 158.2453125 128.75625 287.04375 287.04375 287.04375 158.2453125 0 287.04375-128.75625 287.04375-287.04375 0-158.2875-128.75625-287.04375-287.04375-287.04375z" p-id="3219"></path><path d="M395.7228125 591.17328125l164.53125-174.85875 30.72515625 28.91109375-164.53125 174.85875z" p-id="3220"></path><path d="M606.753125 544.56875h-42.1875V442.4328125H462.3453125v-42.1875h123.35625c11.64375 0 21.09375 9.45 21.09375 21.09375v123.2296875z" p-id="3221"></path></svg>