<?xml version="1.0" standalone="no"?><!DOCTYPE svg PUBLIC "-//W3C//DTD SVG 1.1//EN" "http://www.w3.org/Graphics/SVG/1.1/DTD/svg11.dtd"><svg t="1605701807957" class="icon" viewBox="0 0 1024 1024" version="1.1" xmlns="http://www.w3.org/2000/svg" p-id="3532" xmlns:xlink="http://www.w3.org/1999/xlink" width="200" height="200"><defs><style type="text/css"></style></defs><path d="M855.67980957 198.64245605c-13.01879883-11.53564453-31.06384278-21.67053223-53.47595215-30.07507324C759.52197266 152.49987793 703.24450684 143.68334961 643.8359375 143.68334961S528.14990234 152.49987793 485.38562011 168.56738281c-22.41210938 8.40454102-40.37475586 18.53942872-53.47595214 30.07507325-7.74536133 6.83898926-13.18359375 13.76037598-17.05627441 20.35217285-29.08630372-2.80151367-78.35998536 0.57678223-129.9407959 40.53955078-32.38220215 25.04882813-85.11657715 19.52819825-85.52856446 19.44580078-10.87646484-1.31835938-21.25854492 4.20227051-26.3671875 13.9251709l-25.54321289 48.61450195c-3.7902832 7.25097656-4.03747559 15.90270997-0.57678223 23.4008789L167.08422852 408.17919922l-19.77539063 39.13879395c-3.70788575 7.33337403-3.7902832 15.98510742-0.24719239 23.31848144l20.02258302 41.44592286L147.14404297 553.19873047c-3.54309083 7.25097656-3.54309083 15.73791504 0 22.9888916l19.77539062 40.95153809-21.17614746 40.86914062c-3.95507813 7.58056641-3.95507813 16.56188965 1e-8 24.22485352L166.75463867 722.9375l-20.92895508 40.62194825c-3.7902832 7.41577148-3.87268067 16.14990234-0.24719238 23.56567382l27.19116211 56.03027344c4.20227051 8.73413086 12.93640137 14.41955567 22.65930176 14.83154297 0.32958984 0 3.13110352 0.08239747 7.74536133 0.08239746 8.81652833 0 24.14245606-0.41198731 41.69311523-2.55432129 38.15002442-4.69665528 67.31872559-15.4083252 86.84692383-31.640625 17.71545411-14.74914551 38.72680664-23.15368653 62.37487793-24.8840332 7.49816895-0.57678223 14.17236328-0.32958984 19.52819824 0.16479492 4.36706543 7.33337403 10.87646484 14.50195313 19.36340332 21.42333985 12.93640137 10.546875 30.81665039 20.6817627 51.74560547 29.41589355C531.28100586 869.60498047 587.88806153 880.31665039 643.8359375 880.31665039s112.55493164-10.71166992 159.274292-30.23986817c20.92895508-8.73413086 38.80920411-18.86901856 51.74560546-29.41589355C872.32409668 806.40612793 881.140625 791.32739258 881.140625 775.671875V249.15209961c0-12.77160645-4.44946289-31.88781739-25.46081543-50.50964356z m-351.75476074 19.28100587C540.92150879 204.08068847 590.60717773 196.41772461 643.8359375 196.41772461c53.22875977 0 102.91442872 7.66296387 139.91088867 21.50573731C820.16650391 231.60144043 828.40625 245.36181641 828.40625 249.15209961c0 3.7902832-8.23974609 17.55065918-44.65942383 31.2286377C746.75036622 294.22351074 697.06469727 301.88647461 643.8359375 301.88647461c-53.22875977 0-102.91442872-7.66296387-139.91088867-21.50573731C467.50537109 266.70275878 459.265625 252.94238281 459.265625 249.15209961c0-3.7902832 8.23974609-17.55065918 44.65942383-31.2286377zM297.76660156 783.41723633c-11.12365723 9.31091309-32.05261231 16.31469727-58.74938965 19.69299317-9.80529786 1.23596192-18.95141602 1.81274414-26.11999511 2.05993652l-14.17236328-29.25109864 21.17614745-41.03393554c3.87268067-7.58056641 3.87268067-16.56188965 0-24.14245606L198.88964844 670.203125l20.92895508-40.53955078c3.7902832-7.33337403 3.95507813-16.06750489 0.32958984-23.56567383L200.20800781 564.734375l19.94018555-40.95153809c3.54309083-7.25097656 3.54309083-15.73791504 0.08239746-22.9888916l-19.85778809-41.28112793 19.69299317-38.97399902c3.62548828-7.16857911 3.7902832-15.65551758 0.32958984-22.98889161l-20.02258301-43.0114746 11.70043946-22.24731445h0.16479492c25.13122559 0 70.53222656-4.20227051 105.13916016-31.06384278 36.33728028-28.09753418 69.70825195-31.39343262 89.2364502-30.1574707v475.02136231c-28.42712403-0.57678223-70.44982911 5.2734375-108.84704591 37.3260498z m475.680542 21.67053223C734.80273438 819.58972168 688.74255372 827.58227539 643.8359375 827.58227539c-44.90661622 0-90.96679688-7.99255372-129.61120606-22.49450684-34.03015137-12.77160645-50.92163086-26.3671875-54.95910644-32.0526123V318.11877441c7.91015625 4.20227051 16.64428711 8.07495117 26.11999512 11.618042C528.14990234 345.80432128 584.42736817 354.62084961 643.8359375 354.62084961s115.68603516-8.81652833 158.45031739-24.8840332c9.55810547-3.54309083 18.29223633-7.49816895 26.11999511-11.618042v454.91638184c-4.03747559 5.68542481-20.84655762 19.28100586-54.95910645 32.05261231z" p-id="3533"></path></svg>