<?xml version="1.0" standalone="no"?><!DOCTYPE svg PUBLIC "-//W3C//DTD SVG 1.1//EN" "http://www.w3.org/Graphics/SVG/1.1/DTD/svg11.dtd"><svg t="1605701820940" class="icon" viewBox="0 0 1025 1024" version="1.1" xmlns="http://www.w3.org/2000/svg" p-id="3953" xmlns:xlink="http://www.w3.org/1999/xlink" width="200.1953125" height="200"><defs><style type="text/css"></style></defs><path d="M950.75 406.7L782.9 186.65c-40.5-53.1-143.55-47.7-155.7-47.25-9.45 0.45-17.1 7.2-19.35 16.2-0.9 3.15-19.35 81-90.9 81-76.5 0-90-76.5-90.45-79.65-1.35-8.55-8.1-15.75-16.65-17.55-97.65-20.7-147.15 44.1-148.95 45.9L79.1 407.15c-11.25 13.5-15.75 30.15-13.05 46.8 2.7 16.2 13.05 30.15 27.9 39.15l134.55 78.3v256.95c0 35.1 28.35 63.45 63.45 63.45h444.15c35.1 0 63.45-28.35 63.45-63.45V568.7l133.65-76.5c14.85-8.55 25.2-22.5 28.8-38.7 3.15-16.2-0.9-33.3-11.25-46.8zM912.5 455.75l-112.5 64.35v-73.8c0-11.7-9.45-21.15-21.15-21.15s-21.15 9.45-21.15 21.15v382.05c0 11.25-9.9 21.15-21.15 21.15H291.95c-11.7 0-21.15-9.45-21.15-21.15V446.3c0-11.7-9.45-21.15-21.15-21.15s-21.15 9.45-21.15 21.15v76.05L115.1 456.2c-4.5-2.7-6.75-5.85-7.65-9.9-0.9-4.05 0.9-8.55 4.05-12.15l183.15-221.85c0.45-0.45 31.05-40.5 93.6-32.85 11.7 41.4 49.05 99.9 128.7 99.9 73.8 0 112.95-57.15 127.35-98.1 31.05 0 85.5 5.85 104.4 31.05L917 432.35c3.15 4.05 4.5 8.55 3.6 13.05A15.30966797 15.30966797 0 0 1 912.5 455.75z" p-id="3954"></path><path d="M513.8 359.45c113.85 0 167.85-117 170.1-122.4 4.95-10.8 0-22.95-10.8-27.9-10.8-4.95-22.95 0-27.9 10.8-0.45 0.9-45 97.2-131.4 97.2S382.4 220.85 382.4 219.95c-4.95-10.8-17.1-15.3-27.9-10.35-10.8 4.95-15.3 17.1-10.35 27.9 1.8 4.95 56.25 121.95 169.65 121.95z m186.3 405.9H327.95c-11.7 0-21.15 9.45-21.15 21.15s9.45 21.15 21.15 21.15h372.15c11.7 0 21.15-9.45 21.15-21.15s-9.45-21.15-21.15-21.15z" p-id="3955"></path></svg>