<?xml version="1.0" standalone="no"?><!DOCTYPE svg PUBLIC "-//W3C//DTD SVG 1.1//EN" "http://www.w3.org/Graphics/SVG/1.1/DTD/svg11.dtd"><svg t="1605701817450" class="icon" viewBox="0 0 1024 1024" version="1.1" xmlns="http://www.w3.org/2000/svg" p-id="3813" xmlns:xlink="http://www.w3.org/1999/xlink" width="200" height="200"><defs><style type="text/css"></style></defs><path d="M827 237.275v-3.6c0-40.365-32.76-73.125-73.125-73.125H270.125C229.76 160.55 197 193.31 197 233.675v3.6C267.83 309.77 384.38 354.5 512 354.5c127.8 0 244.35-44.82 315-117.225z m0 60.57C747.215 361.79 633.86 399.5 512 399.5c-121.77 0-235.17-37.62-315-101.7v501.075C197 839.24 229.76 872 270.125 872h483.75c40.365 0 73.125-32.76 73.125-73.125V297.845z m-344.7 320.85v-49.185H392.03a23.625 23.625 0 1 1 0-47.25h38.835l-26.775-24.03a23.625 23.625 0 0 1 31.5-35.145l66.06 59.175h13.635l65.97-59.175a23.625 23.625 0 1 1 31.59 35.145l-26.82 24.03h38.025a23.625 23.625 0 1 1 0 47.25h-94.41v49.185h94.41a23.625 23.625 0 1 1 0 47.25h-94.41v93.06a23.625 23.625 0 1 1-47.25 0v-93.06H391.985a23.625 23.625 0 1 1 0-47.25h90.36zM270.17 115.595h483.75A118.125 118.125 0 0 1 872 233.63v565.2A118.125 118.125 0 0 1 753.875 917H270.125A118.125 118.125 0 0 1 152 798.875V233.675A118.125 118.125 0 0 1 270.125 115.55z" p-id="3814"></path></svg>