<?xml version="1.0" standalone="no"?><!DOCTYPE svg PUBLIC "-//W3C//DTD SVG 1.1//EN" "http://www.w3.org/Graphics/SVG/1.1/DTD/svg11.dtd"><svg t="1605701796713" class="icon" viewBox="0 0 1024 1024" version="1.1" xmlns="http://www.w3.org/2000/svg" p-id="3250" xmlns:xlink="http://www.w3.org/1999/xlink" width="200" height="200"><defs><style type="text/css"></style></defs><path d="M584.36014342 799.64232635H224.80723548v-575.28465271h359.55290794v575.28465271z m0-683.15013885H224.80723548C185.25660872 116.4921875 152.89665389 148.85214234 152.89665389 188.40276909v647.19446182c0 39.55062676 32.35995484 71.91058159 71.91058159 71.91058159h359.55290794c39.55062676 0 71.91058159-32.35995484 71.91058159-71.91058159V188.40276909C656.27072501 148.85214234 623.91077018 116.4921875 584.36014342 116.4921875z m143.82116318 316.40655899l-35.95490456 35.95490455c17.97783852 25.16851043 17.97783852 57.52846527 0 82.69697572l35.95490456 35.95490455c43.14634896-43.14557647 43.14634896-107.86548614 0-154.60678482z m75.50553131-75.50630378l-35.95490456 35.95490455c64.71913718 64.71913718 64.71913718 165.39395141 0 233.7088108l35.95490456 35.95490456c89.88842011-82.69620322 89.88842011-219.32592202 0-305.61861991z" p-id="3251"></path></svg>